<svg xmlns="http://www.w3.org/2000/svg" viewBox="0 0 1536 479" preserveAspectRatio="xMidYMid meet">
  <defs>
    <!-- filtro de sombra discreta -->
    <filter id="ds" x="-50%" y="-50%" width="200%" height="200%">
      <feOffset in="SourceAlpha" dx="0" dy="40" result="off"/>
      <feGaussianBlur in="off" stdDeviation="60" result="blur"/>
      <feColorMatrix in="blur" type="matrix" values="0 0 0 0 0.02  0 0 0 0 0.02  0 0 0 0 0.02  0 0 0 0.4" result="shadow"/>
      <feMerge>
        <feMergeNode in="shadow"/>
        <feMergeNode in="SourceGraphic"/>
      </feMerge>
    </filter>
  </defs>

  <!-- Apliquei o fill branco e o filtro de sombra no <g> para afetar todos os paths -->
  <g transform="translate(0,479) scale(0.1,-0.1)" fill="#ffffff" stroke="none" filter="url(#ds)">
    <path d="M2046 4775 c-153 -32 -276 -89 -398 -185 -99 -80 -178 -179 -238 -304 -74 -152 -84 -202 -84 -391 0 -145 3 -168 27 -248 70 -227 67 -224 899 -1053 658 -657 741 -736 812 -778 165 -95 320 -133 509 -123 132 7 213 26 323 77 250 115 423 321 496 585 17 66 21 107 21 230 0 133 -3 160 -27 238 -93 308 -317 531 -623 619 -67 20 -101 23 -238 23 -148 0 -167 -3 -250 -29 -202 -64 -247 -96 -555 -403 l-256 -253 -375 377 c-366 368 -377 380 -418 463 -83 170 -91 333 -26 501 68 172 232 317 411 364 74 19 233 19 307 0 217 -56 395 -244 442 -463 29 -141 12 -263 -57 -402 -38 -79 -57 -101 -262 -308 l-220 -223 99 -99 100 -100 213 212 c266 265 319 336 378 510 51 152 58 376 15 526 -88 305 -330 542 -636 623 -104 27 -292 34 -389 14z m1607 -1601 c180 -40 336 -161 416 -324 61 -124 79 -236 58 -362 -29 -168 -128 -323 -265 -414 -31 -21 -95 -51 -142 -68 -74 -26 -99 -30 -190 -30 -121 0 -187 16 -295 72 -59 31 -108 74 -320 284 l-250 248 250 248 c236 235 255 251 335 291 140 68 265 86 403 55z"/>
    <path d="M738 3460 c-285 -52 -528 -238 -653 -501 -61 -129 -79 -214 -79 -379 0 -118 5 -160 22 -225 73 -264 247 -470 496 -585 112 -52 192 -71 324 -77 190 -9 344 29 508 124 65 38 124 91 339 304 l261 258 557 -557 557 -557 -430 -430 -430 -430 -430 430 -430 430 402 402 403 403 -100 100 -100 100 -505 -505 -504 -504 632 -630 632 -631 632 630 633 630 -1000 1001 c-550 550 -1027 1020 -1060 1044 -82 59 -168 100 -272 131 -72 22 -113 27 -223 30 -74 1 -156 -1 -182 -6z m277 -285 c39 -8 108 -33 155 -56 80 -40 99 -56 335 -291 l250 -248 -250 -248 c-236 -234 -255 -251 -335 -291 -161 -79 -310 -89 -474 -33 -148 51 -267 152 -339 289 -50 95 -68 170 -68 283 0 175 55 305 180 430 150 148 345 207 546 165z"/>
    <path d="M5988 3435 c-185 -35 -354 -128 -483 -266 -277 -295 -323 -772 -108 -1117 120 -194 307 -333 528 -394 120 -32 340 -32 445 0 78 25 210 87 210 100 0 4 -17 26 -38 50 l-37 43 -68 -31 c-107 -49 -185 -63 -317 -57 -189 7 -333 67 -468 192 -177 164 -261 375 -249 624 7 135 24 206 77 317 98 203 294 362 505 409 121 27 294 18 408 -22 196 -69 339 -197 437 -392 53 -107 73 -198 74 -346 1 -146 -19 -235 -75 -348 -34 -66 -88 -147 -99 -147 -4 0 -71 77 -149 170 -78 94 -148 170 -154 170 -7 -1 -31 -18 -55 -40 l-43 -39 271 -323 c150 -178 279 -326 289 -330 27 -11 171 -9 171 2 0 6 -44 59 -97 118 -53 59 -107 118 -119 132 l-23 25 46 60 c54 70 126 216 147 298 97 371 -30 755 -322 974 -153 116 -312 172 -507 178 -80 3 -145 0 -197 -10z"/>
    <path d="M13757 3424 c-4 -4 -7 -405 -7 -891 l0 -884 63 3 62 3 3 253 2 252 295 0 295 0 0 65 0 65 -295 0 -295 0 0 457 c0 384 2 455 13 443 8 -8 104 -123 215 -255 110 -132 357 -427 549 -655 191 -229 388 -464 438 -523 l89 -107 71 0 c120 0 181 -86 -520 740 -137 162 -391 462 -563 665 l-314 370 -47 3 c-26 2 -50 0 -54 -4z"/>
    <path d="M7352 2783 l3 -638 29 -84 c69 -198 201 -331 393 -398 68 -24 94 -27 203 -27 112 -1 134 2 205 27 203 71 337 216 399 431 l26 88 0 619 0 619 -65 0 -65 0 0 -602 c0 -503 -3 -614 -15 -667 -44 -183 -162 -317 -333 -373 -77 -25 -219 -24 -305 2 -169 52 -301 207 -336 395 -7 38 -11 266 -11 652 l0 593 -65 0 -66 0 3 -637z"/>
    <path d="M10038 3358 c-30 -35 -331 -389 -668 -788 -337 -399 -649 -766 -692 -816 -43 -51 -78 -95 -78 -98 0 -3 38 -6 84 -6 l84 0 539 643 c297 353 586 697 642 764 57 68 107 125 112 129 5 3 9 -176 9 -445 l0 -451 -295 0 -295 0 0 -65 0 -65 295 0 295 0 2 -252 3 -253 65 0 65 0 3 883 2 882 -59 0 -59 0 -54 -62z"/>
    <path d="M10570 2534 l0 -886 368 5 c294 4 382 8 442 22 281 63 494 229 609 476 120 257 117 537 -9 794 -109 222 -300 378 -546 447 -74 21 -102 22 -471 26 l-393 3 0 -887z m762 752 c161 -31 277 -93 394 -211 66 -66 90 -99 128 -176 67 -136 81 -198 81 -359 0 -161 -14 -223 -82 -360 -38 -79 -61 -110 -132 -181 -71 -71 -103 -94 -181 -133 -150 -74 -226 -86 -562 -86 l-278 0 0 760 0 760 279 0 c199 0 300 -4 353 -14z"/>
    <path d="M12380 2535 l0 -885 65 0 65 0 0 826 0 825 228 -3 c209 -3 232 -5 284 -26 69 -28 136 -91 175 -163 26 -50 28 -62 28 -169 0 -102 -3 -121 -25 -165 -46 -93 -129 -154 -239 -175 -30 -5 -112 -10 -182 -10 l-129 0 0 -44 c0 -49 -21 -22 542 -686 l174 -205 92 -3 c51 -1 92 0 92 3 0 3 -157 190 -350 415 -192 225 -350 412 -350 415 0 3 28 5 63 5 221 0 403 143 448 351 16 75 6 211 -21 281 -47 126 -156 228 -292 272 -76 26 -82 26 -373 26 l-295 0 0 -885z"/>
  </g>
</svg>
